<svg width="1080" height="1920" viewBox="0 0 1080 1920" fill="none" xmlns="http://www.w3.org/2000/svg">
<g clip-path="url(#clip0_2415_35)">
<rect width="1080" height="1920" fill="white"/>
<g clip-path="url(#clip1_2415_35)">
<path d="M1155.88 1126.17H-621.141V1967.7H1155.88V1126.17Z" fill="#2F343A"/>
<path d="M1205.41 1640.91L1057.68 1522.12L1021.36 1492.81C1012.63 1485.9 1001.98 1482.31 991.431 1482.31C980.881 1482.31 970.281 1485.9 961.551 1492.81L925.231 1522.12L777.501 1640.91C773.551 1644.13 771.211 1648.96 771.211 1654.06V1880.26L855.651 1812.34V1684.72L991.431 1575.34L1127.26 1684.72V1854.02L1057.68 1797.95L998.081 1750.04C994.181 1746.97 988.671 1746.97 984.831 1750.04L773.441 1920.01H903.451C905.161 1920.01 906.831 1919.44 908.131 1918.35L991.431 1851.27L1073.58 1917.42H1073.63L1074.77 1918.36C1076.07 1919.45 1077.73 1920.02 1079.45 1920.02H1199.59C1206.24 1920.02 1211.7 1914.62 1211.7 1907.91V1654.07C1211.7 1648.98 1209.36 1644.15 1205.41 1640.92V1640.91Z" fill="#3FA37F"/>
<path d="M1199.61 1912.22L1073.55 1917.39L991.449 1851.27L1057.69 1797.94L1127.27 1854.02L1177.97 1894.79L1199.61 1912.22Z" fill="url(#paint0_linear_2415_35)"/>
</g>
<g clip-path="url(#clip2_2415_35)">
<path d="M1878.08 -85.9098H-957.562V1257.13H1878.08V-85.9098Z" fill="#2F343A"/>
</g>
</g>
<defs>
<linearGradient id="paint0_linear_2415_35" x1="1028.25" y1="1814.46" x2="1162.81" y2="1949.02" gradientUnits="userSpaceOnUse">
<stop offset="0.14" stop-color="#227254"/>
<stop offset="0.66" stop-color="#3FA37F"/>
</linearGradient>
<clipPath id="clip0_2415_35">
<rect width="1080" height="1920" fill="white"/>
</clipPath>
<clipPath id="clip1_2415_35">
<rect width="1640" height="740" fill="white" transform="translate(-560 1180)"/>
</clipPath>
<clipPath id="clip2_2415_35">
<rect width="2617" height="1181" fill="white" transform="translate(-860)"/>
</clipPath>
</defs>
</svg>
