<?xml version="1.0" encoding="UTF-8"?>
<svg id="_Слой_1" data-name="Слой 1" xmlns="http://www.w3.org/2000/svg" xmlns:xlink="http://www.w3.org/1999/xlink" viewBox="0 0 897.56 206.22">
  <defs>
    <style>
      .cls-1 {
        fill: #fff;
      }

      .cls-2 {
        fill: url(#_Безымянный_градиент_78);
      }
    </style>
    <linearGradient id="_Безымянный_градиент_78" data-name="Безымянный градиент 78" x1="99.78" y1="128.93" x2="152.01" y2="181.16" gradientUnits="userSpaceOnUse">
      <stop offset=".14" stop-color="#ccc"/>
      <stop offset=".66" stop-color="#fff"/>
    </linearGradient>
  </defs>
  <g>
    <path class="cls-1" d="M168.54,61.56L111.2,15.45l-14.1-11.38c-3.39-2.68-7.52-4.07-11.62-4.07s-8.21,1.39-11.6,4.07l-14.1,11.38L2.44,61.56c-1.53,1.25-2.44,3.13-2.44,5.1v87.8l32.78-26.36v-49.54l52.7-42.46,52.72,42.46v65.71l-27.01-21.76-23.14-18.6c-1.51-1.19-3.65-1.19-5.14,0L.87,169.89h50.47c.67,0,1.31-.22,1.82-.65l32.33-26.04,31.89,25.68h.02l.44.36c.5.42,1.15.65,1.82.65h46.63c2.58,0,4.7-2.1,4.7-4.7v-98.53c0-1.98-.91-3.85-2.44-5.1Z"/>
    <polygon class="cls-2" points="166.29 166.87 117.36 168.88 85.49 143.21 111.2 122.51 138.21 144.28 157.89 160.11 166.29 166.87"/>
  </g>
  <g>
    <g>
      <path class="cls-1" d="M263.6,135.92c-3.75,0-6.83-.59-9.23-1.76-2.4-1.17-4.16-2.87-5.28-5.1-1.11-2.23-1.67-4.92-1.67-8.09v-40.99h21.99v-20.58h-21.99v-21.81h-23.04v7.39c0,4.69-1.29,8.27-3.87,10.73-2.58,2.46-6.22,3.69-10.91,3.69h-1.76v20.58h16.54v42.22c0,10.79,2.96,19.15,8.88,25.07,5.92,5.92,14.28,8.88,25.07,8.88,1.76,0,3.69-.12,5.81-.35,2.11-.24,3.99-.47,5.63-.7v-19.7c-1.05.12-2.14.24-3.25.35-1.11.12-2.08.18-2.9.18Z"/>
      <path class="cls-1" d="M311.14,62.57c-3.65,2.17-6.54,5.64-8.7,10.38v-13.54h-21.64v95.69h23.05v-53.3c0-7.27,1.99-12.93,5.98-16.98,3.99-4.05,9.26-5.01,15.83-5.01h8.27v-20.41h-5.63c-6.68,0-12.4.35-17.15,3.17Z"/>
      <path class="cls-1" d="M404.56,115.51c0,4.22-.82,7.86-2.46,10.91-1.64,3.05-3.93,5.43-6.86,7.13-2.93,1.7-6.28,2.55-10.02,2.55s-7.13-.85-10.12-2.55c-2.99-1.7-5.28-4.05-6.86-7.04-1.59-2.99-2.38-6.48-2.38-10.47v-56.64h-23.04v58.58c0,7.86,1.43,14.72,4.31,20.58,2.87,5.87,7.04,10.44,12.49,13.72,5.45,3.28,11.88,4.93,19.26,4.93,6.8,0,12.75-1.47,17.86-4.4,3.83-2.2,6.85-5.23,9.06-9.08v11.37h21.81V59.4h-23.04v56.11Z"/>
      <path class="cls-1" d="M526.4,155.09v-61.57c0-7.15-1.53-13.46-4.57-18.91-3.05-5.45-7.3-9.7-12.76-12.75-5.45-3.05-11.7-4.57-18.73-4.57s-12.75,1.49-17.86,4.48c-3.19,1.87-5.76,4.35-7.83,7.31V29.5h-23.04v125.6h23.04v-56.11c0-4.22.82-7.85,2.46-10.91,1.64-3.05,3.93-5.42,6.86-7.12,2.93-1.7,6.27-2.55,10.03-2.55s7.24.85,10.11,2.55c2.87,1.7,5.13,4.08,6.77,7.12,1.64,3.05,2.46,6.68,2.46,10.91v56.11h23.05Z"/>
      <path class="cls-1" d="M587.44,157.2c9.26,0,17.71-2.17,25.33-6.51,7.62-4.34,13.72-10.26,18.29-17.77,4.57-7.5,6.86-16.07,6.86-25.68s-2.26-18.32-6.77-25.77c-4.52-7.45-10.59-13.34-18.21-17.68-7.62-4.34-16.13-6.51-25.51-6.51s-18.06,2.17-25.68,6.51c-7.62,4.34-13.69,10.26-18.21,17.77-4.52,7.51-6.77,16.07-6.77,25.68s2.26,18.18,6.77,25.68c4.51,7.51,10.61,13.43,18.29,17.77,7.68,4.34,16.21,6.51,25.59,6.51ZM564.13,92.38c2.29-4.28,5.42-7.68,9.41-10.2,3.99-2.52,8.62-3.78,13.89-3.78s9.71,1.26,13.63,3.78c3.93,2.52,7.04,5.92,9.32,10.2,2.29,4.28,3.43,9.24,3.43,14.86s-1.15,10.47-3.43,14.86c-2.29,4.4-5.39,7.83-9.32,10.29-3.93,2.46-8.47,3.69-13.63,3.69s-9.91-1.23-13.89-3.69c-3.99-2.46-7.13-5.89-9.41-10.29-2.29-4.4-3.43-9.35-3.43-14.86s1.14-10.58,3.43-14.86Z"/>
      <path class="cls-1" d="M793.07,155.09v-61.57c0-7.15-1.53-13.46-4.57-18.91-3.05-5.45-7.24-9.7-12.58-12.75-5.34-3.05-11.41-4.57-18.21-4.57-7.62,0-14.37,1.91-20.23,5.72-3.82,2.48-6.94,5.85-9.52,9.94-2.1-3.67-4.96-6.88-8.78-9.5-5.98-4.1-12.9-6.16-20.75-6.16-7.16,0-13.37,1.7-18.65,5.1-3.49,2.25-6.14,5.35-8.09,9.14v-12.13h-21.64v95.69h23.04v-56.11c0-4.22.76-7.85,2.29-10.91,1.52-3.05,3.69-5.42,6.51-7.12,2.81-1.7,6.04-2.55,9.67-2.55s7.01.85,9.76,2.55c2.75,1.7,4.89,4.08,6.42,7.12,1.52,3.05,2.29,6.68,2.29,10.91v56.11h23.04v-56.11c0-4.22.76-7.85,2.29-10.91,1.52-3.05,3.69-5.42,6.51-7.12,2.82-1.7,6.04-2.55,9.68-2.55,3.87,0,7.15.85,9.85,2.55,2.7,1.7,4.81,4.08,6.33,7.12,1.52,3.05,2.29,6.68,2.29,10.91v56.11h23.05Z"/>
      <path class="cls-1" d="M893.69,133.81l-18.65-9.15c-2.11,3.75-5.01,6.74-8.71,8.97-3.69,2.23-8.18,3.34-13.46,3.34s-9.94-1.23-13.98-3.69c-4.04-2.46-7.09-5.95-9.15-10.47-1.25-2.76-1.98-5.8-2.29-9.06h68.87c.47-1.29.79-2.81.97-4.57.18-1.76.26-3.46.26-5.1,0-6.45-1.06-12.46-3.17-18.03-2.11-5.57-5.16-10.52-9.14-14.86-3.99-4.34-8.82-7.74-14.51-10.2s-12.28-3.69-19.79-3.69c-8.91,0-16.98,2.17-24.19,6.51-7.21,4.34-12.9,10.23-17.06,17.68-4.16,7.45-6.24,15.98-6.24,25.6s2.05,17.71,6.16,25.33c4.1,7.62,9.85,13.66,17.24,18.12,7.39,4.46,16.01,6.69,25.86,6.69,6.57,0,12.58-1,18.03-2.99,5.45-1.99,10.17-4.75,14.16-8.27,3.99-3.52,6.92-7.56,8.8-12.14ZM838.1,79.89c3.75-2.4,8.03-3.61,12.84-3.61s9.35,1.23,12.93,3.69c3.58,2.46,6.16,5.81,7.74,10.03.72,1.92,1.13,3.99,1.31,6.16h-44.97c.39-2.03.89-3.96,1.62-5.72,1.94-4.63,4.78-8.15,8.53-10.55Z"/>
    </g>
    <g>
      <path class="cls-1" d="M599.33,175.74h-12.06s0,30.04,0,30.04h5.36s0-10.3,0-10.3h6.7c2.98,0,5.43-.92,7.36-2.77,1.93-1.85,2.9-4.21,2.9-7.1,0-2.89-.96-5.26-2.9-7.1-1.93-1.85-4.38-2.77-7.36-2.77ZM602.82,189.41c-.93.9-2.25,1.35-3.97,1.35h-6.22s0-10.3,0-10.3h6.22c1.72,0,3.04.45,3.97,1.35.93.9,1.4,2.17,1.4,3.8,0,1.63-.46,2.9-1.4,3.8Z"/>
      <path class="cls-1" d="M633.4,175.74l-10.95,30.04h5.58s2.32-6.44,2.32-6.44h12.75s2.32,6.44,2.32,6.44h5.58s-10.94-30.04-10.94-30.04h-6.65ZM632.03,194.62l4.59-12.87h.22s4.59,12.87,4.59,12.87h-9.4Z"/>
      <path class="cls-1" d="M684.33,193.53c.73-.39,1.48-.92,2.27-1.61s1.42-1.62,1.89-2.79c.47-1.17.71-2.49.71-3.95,0-2.86-.92-5.15-2.75-6.87-1.83-1.72-4.21-2.57-7.13-2.57h-12.45s0,30.04,0,30.04h5.36s0-11.16,0-11.16h4.08s7.72,11.16,7.72,11.16h6.01s-7.94-11.37-7.94-11.37c.75-.2,1.48-.49,2.21-.88ZM672.24,189.9v-9.44s6.65,0,6.65,0c1.51,0,2.72.41,3.6,1.24.89.83,1.33,1.99,1.33,3.48,0,1.49-.45,2.65-1.33,3.48-.89.83-2.07,1.24-3.56,1.24h-6.69Z"/>
      <polygon class="cls-1" points="704.43 180.46 713.66 180.46 713.66 205.79 719.02 205.79 719.02 180.46 728.25 180.46 728.25 175.74 704.43 175.74 704.43 180.46"/>
      <polygon class="cls-1" points="765.38 198.27 765.16 198.27 752.29 175.74 745.2 175.74 745.2 205.79 750.57 205.79 750.57 183.25 750.79 183.25 763.66 205.79 770.74 205.79 770.74 175.74 765.38 175.74 765.38 198.27"/>
      <polygon class="cls-1" points="795.42 192.91 808.94 192.91 808.94 188.41 795.42 188.41 795.42 180.47 809.8 180.47 809.8 175.74 790.05 175.74 790.05 205.79 810.23 205.79 810.23 201.07 795.42 201.07 795.42 192.91"/>
      <path class="cls-1" d="M845.91,193.53c.73-.39,1.49-.92,2.28-1.61.79-.69,1.42-1.62,1.89-2.79.47-1.17.71-2.49.71-3.95,0-2.86-.92-5.15-2.75-6.87-1.83-1.72-4.21-2.57-7.13-2.57h-12.45s0,30.04,0,30.04h5.36s0-11.16,0-11.16h4.08s7.73,11.16,7.73,11.16h6.01s-7.94-11.37-7.94-11.37c.74-.2,1.48-.49,2.21-.88ZM833.83,189.91v-9.44s6.66,0,6.66,0c1.51,0,2.72.41,3.6,1.24.89.83,1.33,1.99,1.33,3.48s-.44,2.65-1.33,3.48c-.89.83-2.07,1.24-3.56,1.24h-6.7Z"/>
      <path class="cls-1" d="M889.15,192.25c-1.17-1.25-2.6-2.11-4.29-2.6-1.69-.49-3.38-.91-5.07-1.26-1.69-.36-3.12-.88-4.29-1.57-1.17-.69-1.76-1.66-1.76-2.92,0-1.14.46-2.07,1.37-2.79.92-.72,2.25-1.07,3.99-1.07,3.18,0,5.11,1.15,5.79,3.43h5.36c-.43-2.55-1.59-4.54-3.48-5.99-1.89-1.44-4.45-2.17-7.68-2.17-3.26,0-5.87.76-7.81,2.3-1.95,1.53-2.92,3.63-2.92,6.29,0,1.83.42,3.37,1.27,4.61.84,1.24,1.89,2.12,3.13,2.62,1.25.5,2.6.95,4.08,1.35s2.83.72,4.08.94c1.25.23,2.29.66,3.13,1.29.84.63,1.26,1.46,1.26,2.49,0,1.34-.51,2.4-1.54,3.15-1.03.76-2.59,1.14-4.68,1.14-1.69,0-3.1-.38-4.23-1.14-1.13-.76-1.87-1.81-2.21-3.15h-5.36c.43,2.86,1.69,5.08,3.78,6.65,2.09,1.57,4.76,2.36,8.03,2.36,3.63,0,6.51-.86,8.63-2.58,2.12-1.72,3.18-3.86,3.18-6.44,0-2.06-.59-3.71-1.76-4.96Z"/>
    </g>
  </g>
</svg>