<?xml version="1.0" encoding="UTF-8"?>
<svg id="_Слой_1" data-name="Слой 1" xmlns="http://www.w3.org/2000/svg" viewBox="0 0 342.81 340.63">
  <path d="M337.92,123.42L222.95,30.98l-28.27-22.81C187.89,2.79,179.6,0,171.39,0s-16.46,2.79-23.25,8.17l-28.27,22.81L4.89,123.42C1.82,125.93,0,129.69,0,133.66v176.04l65.72-52.86v-99.32l105.67-85.13,105.71,85.13v131.75l-54.14-43.63h0s0,0,0,0l-46.39-37.29c-3.03-2.39-7.32-2.39-10.31,0L1.74,340.63h101.18c1.33,0,2.63-.44,3.64-1.29l64.83-52.21,31.99,25.76,31.93,25.71h0s.01.01.01.01h.04l.89.73c1.01.85,2.31,1.29,3.64,1.29h93.5c5.18,0,9.42-4.21,9.42-9.42v-197.55c0-3.96-1.82-7.72-4.89-10.23Z"/>
</svg>