<?xml version="1.0" encoding="UTF-8"?>
<svg id="_Слой_1" data-name="Слой 1" xmlns="http://www.w3.org/2000/svg" xmlns:xlink="http://www.w3.org/1999/xlink" viewBox="0 0 800 800">
  <defs>
    <style>
      .cls-1 {
        fill: #fff;
      }

      .cls-2 {
        fill: #3fa37f;
      }

      .cls-3 {
        fill: url(#_Безымянный_градиент_78);
      }
    </style>
    <linearGradient id="_Безымянный_градиент_78" data-name="Безымянный градиент 78" x1="419.01" y1="379.22" x2="488.51" y2="448.73" gradientUnits="userSpaceOnUse">
      <stop offset=".14" stop-color="#ccc"/>
      <stop offset=".66" stop-color="#fff"/>
    </linearGradient>
  </defs>
  <rect class="cls-2" x="-21.65" y="-26.32" width="858.89" height="858.89"/>
  <g>
    <g>
      <path class="cls-1" d="M510.52,289.58l-76.31-61.36-18.76-15.14c-4.51-3.57-10.01-5.42-15.46-5.42s-10.92,1.85-15.43,5.42l-18.76,15.14-76.31,61.36c-2.04,1.66-3.25,4.16-3.25,6.79v116.84l43.62-35.08v-65.92l70.13-56.5,70.16,56.5v87.45l-35.94-28.96-30.79-24.75c-2.01-1.58-4.86-1.58-6.84,0l-109.19,87.8h67.16c.89,0,1.74-.3,2.42-.86l43.03-34.65,42.44,34.17h.03l.59.48c.67.56,1.53.86,2.42.86h62.06c3.44,0,6.25-2.79,6.25-6.25v-131.12c0-2.63-1.21-5.13-3.25-6.79Z"/>
      <polygon class="cls-3" points="507.52 429.72 442.41 432.39 400 398.23 434.21 370.69 470.16 399.65 496.34 420.71 507.52 429.72"/>
    </g>
    <g>
      <g>
        <path class="cls-1" d="M197.05,542.99c-2.63,0-4.8-.41-6.48-1.23-1.69-.82-2.92-2.02-3.71-3.58-.78-1.56-1.17-3.46-1.17-5.68v-28.77h15.44v-14.45h-15.44v-15.31h-16.18v5.19c0,3.29-.91,5.8-2.72,7.53-1.81,1.73-4.37,2.59-7.66,2.59h-1.24v14.45h11.61v29.64c0,7.58,2.08,13.44,6.24,17.6,4.16,4.16,10.02,6.24,17.6,6.24,1.23,0,2.59-.08,4.08-.25,1.48-.17,2.8-.33,3.95-.49v-13.83c-.74.08-1.5.17-2.28.25-.78.08-1.46.12-2.04.12Z"/>
        <path class="cls-1" d="M230.42,491.49c-2.56,1.52-4.59,3.96-6.11,7.28v-9.51h-15.19v67.18h16.18v-37.42c0-5.1,1.4-9.08,4.2-11.92,2.8-2.84,6.5-3.52,11.11-3.52h5.8v-14.33h-3.95c-4.69,0-8.7.25-12.04,2.22Z"/>
        <path class="cls-1" d="M296,528.66c0,2.96-.58,5.52-1.73,7.66-1.15,2.14-2.76,3.81-4.82,5-2.06,1.19-4.41,1.79-7.04,1.79s-5-.6-7.1-1.79c-2.1-1.19-3.7-2.84-4.81-4.94-1.11-2.1-1.67-4.55-1.67-7.35v-39.76h-16.18v41.12c0,5.52,1.01,10.33,3.03,14.45,2.02,4.12,4.94,7.33,8.77,9.63,3.83,2.3,8.34,3.46,13.52,3.46,4.77,0,8.95-1.03,12.54-3.09,2.69-1.54,4.81-3.67,6.36-6.38v7.98h15.31v-67.18h-16.18v39.39Z"/>
        <path class="cls-1" d="M381.54,556.45v-43.22c0-5.02-1.07-9.45-3.21-13.27-2.14-3.83-5.13-6.81-8.95-8.95-3.83-2.14-8.21-3.21-13.15-3.21s-8.95,1.05-12.54,3.15c-2.24,1.32-4.04,3.06-5.49,5.13v-27.79h-16.18v88.17h16.18v-39.39c0-2.96.58-5.51,1.73-7.66,1.15-2.14,2.76-3.81,4.82-5,2.06-1.19,4.4-1.79,7.04-1.79s5.08.6,7.1,1.79c2.02,1.19,3.6,2.86,4.75,5,1.15,2.14,1.73,4.69,1.73,7.66v39.39h16.18Z"/>
        <path class="cls-1" d="M424.39,557.93c6.5,0,12.43-1.52,17.78-4.57,5.35-3.05,9.63-7.2,12.84-12.47,3.21-5.27,4.82-11.28,4.82-18.03s-1.59-12.86-4.75-18.09c-3.17-5.23-7.43-9.36-12.78-12.41-5.35-3.05-11.32-4.57-17.91-4.57s-12.68,1.52-18.03,4.57c-5.35,3.05-9.61,7.2-12.78,12.47-3.17,5.27-4.75,11.28-4.75,18.03s1.58,12.76,4.75,18.03c3.17,5.27,7.45,9.43,12.84,12.47,5.39,3.05,11.38,4.57,17.97,4.57ZM408.02,512.43c1.61-3,3.81-5.39,6.61-7.16,2.8-1.77,6.05-2.66,9.75-2.66s6.81.89,9.57,2.66c2.76,1.77,4.94,4.16,6.55,7.16,1.61,3.01,2.41,6.48,2.41,10.43s-.8,7.35-2.41,10.43c-1.61,3.09-3.79,5.49-6.55,7.22-2.76,1.73-5.95,2.59-9.57,2.59s-6.96-.86-9.75-2.59c-2.8-1.73-5-4.14-6.61-7.22-1.61-3.09-2.41-6.56-2.41-10.43s.8-7.43,2.41-10.43Z"/>
        <path class="cls-1" d="M568.74,556.45v-43.22c0-5.02-1.07-9.45-3.21-13.27-2.14-3.83-5.08-6.81-8.83-8.95-3.75-2.14-8.01-3.21-12.78-3.21-5.35,0-10.09,1.34-14.2,4.01-2.68,1.74-4.88,4.11-6.68,6.98-1.47-2.58-3.48-4.83-6.16-6.67-4.2-2.88-9.06-4.32-14.57-4.32-5.02,0-9.39,1.19-13.09,3.58-2.45,1.58-4.31,3.76-5.68,6.42v-8.52h-15.19v67.18h16.18v-39.39c0-2.96.54-5.51,1.61-7.66,1.07-2.14,2.59-3.81,4.57-5,1.97-1.19,4.24-1.79,6.79-1.79s4.92.6,6.85,1.79c1.93,1.19,3.44,2.86,4.51,5,1.07,2.14,1.61,4.69,1.61,7.66v39.39h16.18v-39.39c0-2.96.53-5.51,1.61-7.66,1.07-2.14,2.59-3.81,4.57-5,1.98-1.19,4.24-1.79,6.79-1.79,2.72,0,5.02.6,6.91,1.79,1.89,1.19,3.38,2.86,4.44,5,1.07,2.14,1.61,4.69,1.61,7.66v39.39h16.18Z"/>
        <path class="cls-1" d="M639.38,541.51l-13.09-6.42c-1.48,2.64-3.52,4.73-6.11,6.3-2.59,1.56-5.74,2.35-9.45,2.35s-6.98-.86-9.82-2.59c-2.84-1.73-4.98-4.18-6.42-7.35-.88-1.93-1.39-4.07-1.61-6.36h48.35c.33-.91.56-1.98.68-3.21.13-1.23.19-2.43.19-3.58,0-4.53-.74-8.75-2.22-12.66-1.48-3.91-3.62-7.39-6.42-10.43-2.8-3.04-6.2-5.43-10.19-7.16s-8.62-2.59-13.89-2.59c-6.26,0-11.92,1.52-16.98,4.57-5.06,3.05-9.06,7.18-11.98,12.41-2.92,5.23-4.38,11.22-4.38,17.97s1.44,12.43,4.32,17.78c2.88,5.35,6.91,9.59,12.1,12.72,5.19,3.13,11.24,4.69,18.15,4.69,4.61,0,8.83-.7,12.66-2.1,3.83-1.4,7.14-3.34,9.94-5.8,2.8-2.47,4.86-5.31,6.18-8.52ZM600.36,503.66c2.63-1.69,5.64-2.53,9.01-2.53s6.56.86,9.08,2.59c2.51,1.73,4.32,4.08,5.43,7.04.51,1.35.8,2.8.92,4.32h-31.57c.27-1.42.63-2.78,1.14-4.01,1.36-3.25,3.35-5.72,5.99-7.41Z"/>
      </g>
      <g>
        <path class="cls-1" d="M432.73,570.94h-8.47s0,21.09,0,21.09h3.77s0-7.23,0-7.23h4.7c2.09,0,3.81-.65,5.17-1.94,1.36-1.3,2.03-2.96,2.03-4.99,0-2.03-.68-3.69-2.03-4.99-1.36-1.3-3.08-1.94-5.17-1.94ZM435.19,580.54c-.65.63-1.58.95-2.79.95h-4.37s0-7.23,0-7.23h4.37c1.21,0,2.14.32,2.79.95.65.63.98,1.52.98,2.67s-.33,2.03-.98,2.67Z"/>
        <path class="cls-1" d="M456.66,570.94l-7.68,21.09h3.92s1.63-4.52,1.63-4.52h8.95s1.63,4.52,1.63,4.52h3.92s-7.68-21.09-7.68-21.09h-4.67ZM455.69,584.2l3.22-9.04h.15s3.22,9.04,3.22,9.04h-6.6Z"/>
        <path class="cls-1" d="M492.4,583.43c.51-.27,1.04-.65,1.6-1.13s.99-1.13,1.33-1.96c.33-.82.5-1.75.5-2.77,0-2.01-.64-3.61-1.93-4.82s-2.95-1.81-5-1.81h-8.74s0,21.09,0,21.09h3.77s0-7.83,0-7.83h2.86s5.42,7.83,5.42,7.83h4.22s-5.57-7.98-5.57-7.98c.52-.14,1.04-.35,1.55-.62ZM483.92,580.89v-6.63s4.67,0,4.67,0c1.06,0,1.91.29,2.53.87.62.58.94,1.4.94,2.44,0,1.05-.31,1.86-.94,2.44s-1.46.87-2.5.87h-4.7Z"/>
        <polygon class="cls-1" points="506.52 574.26 513 574.26 513 592.04 516.76 592.04 516.76 574.26 523.24 574.26 523.24 570.95 506.52 570.95 506.52 574.26"/>
        <polygon class="cls-1" points="549.3 586.76 549.15 586.76 540.11 570.95 535.14 570.95 535.14 592.04 538.91 592.04 538.91 576.22 539.06 576.22 548.1 592.04 553.07 592.04 553.07 570.95 549.3 570.95 549.3 586.76"/>
        <polygon class="cls-1" points="570.39 583 579.88 583 579.88 579.84 570.39 579.84 570.39 574.26 580.49 574.26 580.49 570.95 566.63 570.95 566.63 592.04 580.79 592.04 580.79 588.72 570.39 588.72 570.39 583"/>
        <path class="cls-1" d="M605.84,583.44c.51-.27,1.04-.65,1.6-1.13s.99-1.13,1.33-1.96c.33-.82.5-1.75.5-2.77,0-2.01-.64-3.61-1.93-4.82-1.29-1.21-2.95-1.81-5-1.81h-8.74s0,21.09,0,21.09h3.77s0-7.83,0-7.83h2.86s5.42,7.83,5.42,7.83h4.22s-5.57-7.98-5.57-7.98c.52-.14,1.04-.35,1.55-.62ZM597.36,580.89v-6.63s4.67,0,4.67,0c1.06,0,1.91.29,2.53.87.62.58.93,1.4.93,2.44s-.31,1.86-.93,2.44c-.62.58-1.46.87-2.5.87h-4.7Z"/>
        <path class="cls-1" d="M636.19,582.53c-.82-.87-1.83-1.48-3.01-1.82-1.19-.34-2.37-.64-3.56-.89-1.19-.25-2.19-.62-3.01-1.1-.82-.48-1.24-1.16-1.24-2.05,0-.8.32-1.46.96-1.96s1.58-.75,2.8-.75c2.23,0,3.59.8,4.07,2.41h3.77c-.3-1.79-1.11-3.19-2.44-4.2s-3.12-1.52-5.39-1.52c-2.29,0-4.12.54-5.48,1.61-1.37,1.07-2.05,2.55-2.05,4.41,0,1.29.3,2.37.89,3.24.59.87,1.32,1.49,2.2,1.84.87.35,1.83.67,2.86.95s1.99.5,2.86.66c.87.16,1.61.46,2.2.9.59.44.89,1.02.89,1.75,0,.94-.36,1.68-1.08,2.21-.72.53-1.82.8-3.28.8-1.19,0-2.18-.27-2.97-.8-.79-.53-1.31-1.27-1.55-2.21h-3.77c.3,2.01,1.19,3.57,2.65,4.67,1.46,1.1,3.34,1.66,5.63,1.66,2.55,0,4.57-.6,6.05-1.81,1.49-1.2,2.23-2.71,2.23-4.52,0-1.45-.41-2.61-1.24-3.48Z"/>
      </g>
    </g>
  </g>
</svg>