<?xml version="1.0" encoding="UTF-8"?>
<svg id="_Слой_1" data-name="Слой 1" xmlns="http://www.w3.org/2000/svg" xmlns:xlink="http://www.w3.org/1999/xlink" viewBox="0 0 800 800">
  <defs>
    <style>
      .cls-1 {
        fill: #2f343a;
      }

      .cls-2 {
        fill: url(#_Безымянный_градиент_11);
      }

      .cls-3 {
        fill: #3fa37f;
      }
    </style>
    <linearGradient id="_Безымянный_градиент_11" data-name="Безымянный градиент 11" x1="429.46" y1="490.69" x2="537.16" y2="598.39" gradientUnits="userSpaceOnUse">
      <stop offset=".14" stop-color="#227254"/>
      <stop offset=".66" stop-color="#3fa37f"/>
    </linearGradient>
  </defs>
  <rect class="cls-1" x="-21.65" y="-26.32" width="858.89" height="858.89"/>
  <g>
    <path class="cls-3" d="M571.25,351.77l-118.25-95.08-29.07-23.46c-6.99-5.53-15.51-8.4-23.96-8.4s-16.93,2.87-23.92,8.4l-29.07,23.46-118.24,95.08c-3.16,2.58-5.03,6.45-5.03,10.52v181.05l67.59-54.36v-102.15l108.68-87.55,108.72,87.55v135.51l-55.69-44.88-47.71-38.35c-3.12-2.45-7.53-2.45-10.61,0l-169.19,136.05h104.06c1.37,0,2.7-.46,3.74-1.33l66.67-53.69,65.76,52.95h.04l.91.75c1.04.87,2.37,1.33,3.74,1.33h96.16c5.32,0,9.69-4.33,9.69-9.69v-203.17c0-4.08-1.87-7.94-5.03-10.52Z"/>
    <polygon class="cls-2" points="566.61 568.93 465.71 573.07 400 520.15 453.02 477.47 508.71 522.35 549.29 554.98 566.61 568.93"/>
  </g>
</svg>