<?xml version="1.0" encoding="UTF-8"?>
<svg id="_Слой_1" data-name="Слой 1" xmlns="http://www.w3.org/2000/svg" xmlns:xlink="http://www.w3.org/1999/xlink" viewBox="0 0 342.81 340.63">
  <defs>
    <style>
      .cls-1 {
        fill: url(#_Безымянный_градиент_11);
      }

      .cls-2 {
        fill: #3fa37f;
      }
    </style>
    <linearGradient id="_Безымянный_градиент_11" data-name="Безымянный градиент 11" x1="200.05" y1="258.5" x2="304.77" y2="363.22" gradientUnits="userSpaceOnUse">
      <stop offset=".14" stop-color="#227254"/>
      <stop offset=".66" stop-color="#3fa37f"/>
    </linearGradient>
  </defs>
  <path class="cls-2" d="M337.92,123.42L222.95,30.98l-28.27-22.81c-6.79-5.38-15.08-8.17-23.29-8.17s-16.46,2.79-23.25,8.17l-28.27,22.81L4.89,123.42c-3.07,2.51-4.89,6.27-4.89,10.23v176.04l65.72-52.86v-99.32l105.67-85.13,105.71,85.13v131.75l-54.15-43.64-46.39-37.29c-3.03-2.39-7.32-2.39-10.31,0L1.74,340.63h101.18c1.33,0,2.63-.44,3.64-1.29l64.83-52.21,63.94,51.48h.04l.89.73c1.01.85,2.31,1.29,3.64,1.29h93.5c5.18,0,9.42-4.21,9.42-9.42v-197.55c0-3.96-1.82-7.72-4.89-10.23Z"/>
  <polygon class="cls-1" points="333.41 334.57 235.3 338.6 171.4 287.14 222.96 245.64 277.11 289.28 316.56 321.01 333.41 334.57"/>
</svg>