<svg width="1640" height="740" viewBox="0 0 1640 740" fill="none" xmlns="http://www.w3.org/2000/svg">
<g clip-path="url(#clip0_2415_8)">
<path d="M1715.88 -53.83H-61.1406V787.7H1715.88V-53.83Z" fill="#2F343A"/>
<path d="M1765.41 460.91L1617.68 342.12L1581.36 312.81C1572.63 305.9 1561.98 302.31 1551.43 302.31C1540.88 302.31 1530.28 305.9 1521.55 312.81L1485.23 342.12L1337.5 460.91C1333.55 464.13 1331.21 468.96 1331.21 474.06V700.26L1415.65 632.34V504.72L1551.43 395.34L1687.26 504.72V674.02L1617.68 617.95L1558.08 570.04C1554.18 566.97 1548.67 566.97 1544.83 570.04L1333.44 740.01H1463.45C1465.16 740.01 1466.83 739.44 1468.13 738.35L1551.43 671.27L1633.58 737.42H1633.63L1634.77 738.36C1636.07 739.45 1637.73 740.02 1639.45 740.02H1759.59C1766.24 740.02 1771.7 734.62 1771.7 727.91V474.07C1771.7 468.98 1769.36 464.15 1765.41 460.92V460.91Z" fill="#3FA37F"/>
<path d="M1759.61 732.22L1633.55 737.39L1551.45 671.27L1617.69 617.94L1687.27 674.02L1737.97 714.79L1759.61 732.22Z" fill="url(#paint0_linear_2415_8)"/>
</g>
<defs>
<linearGradient id="paint0_linear_2415_8" x1="1588.25" y1="634.46" x2="1722.81" y2="769.02" gradientUnits="userSpaceOnUse">
<stop offset="0.14" stop-color="#227254"/>
<stop offset="0.66" stop-color="#3FA37F"/>
</linearGradient>
<clipPath id="clip0_2415_8">
<rect width="1640" height="740" fill="white"/>
</clipPath>
</defs>
</svg>
