<svg width="1640" height="740" viewBox="0 0 1640 740" fill="none" xmlns="http://www.w3.org/2000/svg">
<g clip-path="url(#clip0_2414_2)">
<path d="M1715.88 -53.83H-61.1406V787.7H1715.88V-53.83Z" fill="#3FA37F"/>
<g opacity="0.15">
<path d="M1786.94 268.13L1537.17 67.29L1475.76 17.74C1461 6.05999 1442.99 -0.0100098 1425.16 -0.0100098C1407.33 -0.0100098 1389.4 6.04999 1374.64 17.74L1313.23 67.29L1063.46 268.13C1056.78 273.58 1052.83 281.75 1052.83 290.36V672.79L1195.59 557.96V342.19L1425.15 157.26L1654.8 342.19V628.42L1537.16 533.62L1436.39 452.62C1429.8 447.44 1420.49 447.44 1413.99 452.62L1056.6 739.99H1276.41C1279.31 739.99 1282.12 739.02 1284.32 737.18L1425.15 623.76L1564.05 735.6H1564.14L1566.07 737.18C1568.27 739.03 1571.08 739.99 1573.98 739.99H1777.1C1788.35 739.99 1797.57 730.85 1797.57 719.52V290.35C1797.57 281.74 1793.61 273.57 1786.94 268.12V268.13Z" fill="white"/>
<path d="M1777.14 726.84L1564.01 735.58L1425.19 623.79L1537.18 533.63L1654.83 628.44L1740.54 697.37L1777.14 726.84Z" fill="url(#paint0_linear_2414_2)"/>
</g>
</g>
<defs>
<linearGradient id="paint0_linear_2414_2" x1="1487.41" y1="561.57" x2="1714.91" y2="789.07" gradientUnits="userSpaceOnUse">
<stop offset="0.14" stop-color="#CCCCCC"/>
<stop offset="0.66" stop-color="white"/>
</linearGradient>
<clipPath id="clip0_2414_2">
<rect width="1640" height="740" fill="white"/>
</clipPath>
</defs>
</svg>
