<?xml version="1.0" encoding="UTF-8"?>
<svg id="_Слой_1" data-name="Слой 1" xmlns="http://www.w3.org/2000/svg" xmlns:xlink="http://www.w3.org/1999/xlink" viewBox="0 0 1640 740">
  <defs>
    <style>
      .cls-1 {
        fill: #2f343a;
      }

      .cls-2 {
        fill: #fff;
      }

      .cls-3 {
        fill: url(#_Безымянный_градиент_11-2);
      }

      .cls-4 {
        fill: url(#_Безымянный_градиент_11);
      }

      .cls-5 {
        fill: #3fa37f;
      }
    </style>
    <linearGradient id="_Безымянный_градиент_11" data-name="Безымянный градиент 11" x1="590.9" y1="386.95" x2="625.18" y2="421.24" gradientUnits="userSpaceOnUse">
      <stop offset=".14" stop-color="#227254"/>
      <stop offset=".66" stop-color="#3fa37f"/>
    </linearGradient>
    <linearGradient id="_Безымянный_градиент_11-2" data-name="Безымянный градиент 11" x1="1588.25" y1="634.46" x2="1722.81" y2="769.02" xlink:href="#_Безымянный_градиент_11"/>
  </defs>
  <rect class="cls-1" x="-61.14" y="-53.83" width="1777.02" height="841.53"/>
  <g>
    <g>
      <path class="cls-5" d="M636.04,342.72l-37.64-30.27-9.26-7.47c-2.22-1.76-4.94-2.67-7.63-2.67s-5.39.91-7.61,2.67l-9.26,7.47-37.64,30.27c-1.01.82-1.6,2.05-1.6,3.35v57.64l21.52-17.31v-32.52l34.6-27.87,34.61,27.87v43.14l-17.73-14.29-15.19-12.21c-.99-.78-2.4-.78-3.38,0l-53.86,43.31h33.13c.44,0,.86-.15,1.19-.42l21.22-17.09,20.93,16.86h.01l.29.24c.33.28.75.42,1.19.42h30.61c1.69,0,3.09-1.38,3.09-3.09v-64.68c0-1.3-.6-2.53-1.6-3.35Z"/>
      <polygon class="cls-4" points="634.56 411.86 602.44 413.17 581.52 396.33 598.4 382.74 616.13 397.03 629.05 407.42 634.56 411.86"/>
    </g>
    <g>
      <g>
        <path class="cls-2" d="M698.44,391.54c-2.46,0-4.49-.38-6.06-1.15-1.58-.77-2.73-1.89-3.47-3.35-.73-1.46-1.1-3.23-1.1-5.31v-26.9h14.44v-13.51h-14.44v-14.32h-15.13v4.85c0,3.08-.85,5.43-2.54,7.04-1.7,1.62-4.08,2.42-7.16,2.42h-1.16v13.51h10.85v27.71c0,7.08,1.94,12.57,5.83,16.46,3.89,3.89,9.37,5.83,16.46,5.83,1.15,0,2.42-.08,3.81-.23,1.38-.15,2.62-.31,3.69-.46v-12.93c-.69.08-1.4.15-2.14.23-.73.08-1.37.12-1.91.12Z"/>
        <path class="cls-2" d="M729.65,343.39c-2.4,1.42-4.29,3.71-5.71,6.81v-8.89h-14.2v62.82h15.13v-34.99c0-4.77,1.31-8.49,3.93-11.14,2.62-2.66,6.08-3.29,10.39-3.29h5.43v-13.4h-3.7c-4.39,0-8.14.23-11.26,2.08Z"/>
        <path class="cls-2" d="M790.97,378.14c0,2.77-.54,5.16-1.62,7.16-1.08,2-2.58,3.56-4.5,4.68-1.93,1.12-4.12,1.67-6.58,1.67s-4.68-.56-6.64-1.67c-1.96-1.12-3.46-2.66-4.5-4.62-1.04-1.96-1.56-4.25-1.56-6.87v-37.18h-15.13v38.45c0,5.16.94,9.66,2.83,13.51,1.88,3.85,4.62,6.85,8.2,9.01,3.58,2.15,7.8,3.23,12.64,3.23,4.46,0,8.37-.96,11.72-2.89,2.51-1.44,4.49-3.43,5.95-5.96v7.46h14.32v-62.82h-15.13v36.84Z"/>
        <path class="cls-2" d="M870.96,404.12v-40.42c0-4.69-1-8.83-3-12.41-2-3.58-4.79-6.37-8.37-8.37-3.58-2-7.68-3-12.3-3s-8.37.98-11.72,2.94c-2.1,1.23-3.78,2.86-5.14,4.8v-25.99h-15.13v82.45h15.13v-36.84c0-2.77.54-5.16,1.62-7.16,1.08-2,2.58-3.56,4.5-4.68,1.92-1.12,4.12-1.68,6.58-1.68s4.75.56,6.64,1.68c1.88,1.12,3.37,2.68,4.45,4.68,1.08,2,1.62,4.39,1.62,7.16v36.84h15.13Z"/>
        <path class="cls-2" d="M911.02,405.51c6.08,0,11.62-1.42,16.63-4.27,5-2.85,9.01-6.74,12.01-11.66,3-4.93,4.5-10.55,4.5-16.86s-1.48-12.03-4.45-16.92c-2.96-4.89-6.95-8.76-11.95-11.6-5.01-2.85-10.59-4.27-16.74-4.27s-11.85,1.42-16.86,4.27c-5.01,2.85-8.99,6.74-11.95,11.66-2.96,4.93-4.45,10.55-4.45,16.86s1.48,11.93,4.45,16.86c2.96,4.93,6.97,8.81,12.01,11.66s10.64,4.27,16.8,4.27ZM895.72,362.96c1.5-2.81,3.56-5.04,6.18-6.7,2.62-1.65,5.66-2.48,9.12-2.48s6.37.83,8.95,2.48c2.58,1.66,4.62,3.89,6.12,6.7,1.5,2.81,2.25,6.06,2.25,9.76s-.75,6.87-2.25,9.76c-1.5,2.89-3.54,5.14-6.12,6.76-2.58,1.62-5.56,2.42-8.95,2.42s-6.5-.81-9.12-2.42c-2.62-1.62-4.68-3.87-6.18-6.76-1.5-2.89-2.25-6.14-2.25-9.76s.75-6.95,2.25-9.76Z"/>
        <path class="cls-2" d="M1046.01,404.12v-40.42c0-4.69-1-8.83-3-12.41-2-3.58-4.75-6.37-8.26-8.37-3.5-2-7.49-3-11.95-3-5.01,0-9.43,1.25-13.28,3.75-2.51,1.63-4.56,3.84-6.25,6.53-1.38-2.41-3.26-4.52-5.76-6.24-3.93-2.69-8.47-4.04-13.62-4.04-4.7,0-8.78,1.12-12.24,3.35-2.29,1.48-4.03,3.51-5.31,6v-7.97h-14.2v62.82h15.13v-36.84c0-2.77.5-5.16,1.5-7.16,1-2,2.42-3.56,4.27-4.68,1.85-1.12,3.96-1.68,6.35-1.68s4.6.56,6.41,1.68c1.81,1.12,3.21,2.68,4.21,4.68,1,2,1.5,4.39,1.5,7.16v36.84h15.13v-36.84c0-2.77.5-5.16,1.5-7.16,1-2,2.42-3.56,4.27-4.68,1.85-1.12,3.96-1.68,6.35-1.68,2.54,0,4.69.56,6.47,1.68,1.77,1.12,3.16,2.68,4.16,4.68,1,2,1.5,4.39,1.5,7.16v36.84h15.13Z"/>
        <path class="cls-2" d="M1112.06,390.15l-12.24-6c-1.39,2.46-3.29,4.43-5.72,5.89-2.42,1.46-5.37,2.19-8.83,2.19s-6.52-.81-9.18-2.42c-2.65-1.62-4.66-3.91-6.01-6.87-.82-1.81-1.3-3.81-1.5-5.95h45.21c.31-.85.52-1.85.63-3,.12-1.15.17-2.27.17-3.35,0-4.23-.69-8.18-2.08-11.84-1.38-3.65-3.39-6.91-6-9.76-2.62-2.85-5.79-5.08-9.53-6.7s-8.06-2.42-12.99-2.42c-5.85,0-11.14,1.42-15.88,4.27-4.73,2.85-8.47,6.72-11.2,11.6-2.73,4.89-4.1,10.49-4.1,16.8s1.35,11.62,4.04,16.63c2.69,5,6.47,8.97,11.31,11.89,4.85,2.93,10.51,4.39,16.97,4.39,4.31,0,8.26-.66,11.84-1.96,3.58-1.31,6.68-3.12,9.29-5.43,2.62-2.31,4.54-4.97,5.78-7.97ZM1075.57,354.76c2.46-1.58,5.27-2.37,8.43-2.37s6.14.81,8.49,2.42c2.35,1.62,4.04,3.81,5.08,6.58.47,1.26.74,2.62.86,4.04h-29.52c.26-1.33.59-2.6,1.07-3.75,1.27-3.04,3.14-5.35,5.6-6.93Z"/>
      </g>
      <g>
        <path class="cls-2" d="M918.83,417.68h-7.92s0,19.72,0,19.72h3.52s0-6.76,0-6.76h4.4c1.95,0,3.56-.61,4.83-1.82,1.27-1.21,1.9-2.77,1.9-4.66,0-1.9-.63-3.45-1.9-4.66-1.27-1.21-2.88-1.82-4.83-1.82ZM921.12,426.65c-.61.59-1.48.89-2.61.89h-4.09s0-6.76,0-6.76h4.09c1.13,0,2,.3,2.61.89.61.59.92,1.42.92,2.49s-.3,1.9-.92,2.49Z"/>
        <path class="cls-2" d="M941.2,417.68l-7.19,19.72h3.66s1.52-4.23,1.52-4.23h8.37s1.52,4.23,1.52,4.23h3.66s-7.18-19.72-7.18-19.72h-4.37ZM940.3,430.07l3.01-8.45h.14s3.01,8.45,3.01,8.45h-6.17Z"/>
        <path class="cls-2" d="M974.63,429.36c.48-.25.97-.61,1.49-1.06s.93-1.06,1.24-1.83c.31-.77.47-1.63.47-2.59,0-1.88-.6-3.38-1.8-4.51s-2.76-1.69-4.68-1.69h-8.17s0,19.72,0,19.72h3.52s0-7.33,0-7.33h2.68s5.07,7.33,5.07,7.33h3.94s-5.21-7.47-5.21-7.47c.49-.13.97-.32,1.45-.58ZM966.69,426.98v-6.2s4.37,0,4.37,0c.99,0,1.78.27,2.37.82.58.55.87,1.31.87,2.28,0,.98-.29,1.74-.87,2.28s-1.36.82-2.34.82h-4.39Z"/>
        <polygon class="cls-2" points="987.82 420.78 993.88 420.78 993.88 437.4 997.4 437.4 997.4 420.78 1003.46 420.78 1003.46 417.68 987.83 417.68 987.82 420.78"/>
        <polygon class="cls-2" points="1027.83 432.47 1027.69 432.47 1019.24 417.68 1014.59 417.68 1014.59 437.4 1018.11 437.4 1018.11 422.61 1018.25 422.61 1026.7 437.4 1031.35 437.4 1031.35 417.68 1027.83 417.68 1027.83 432.47"/>
        <polygon class="cls-2" points="1047.55 428.95 1056.43 428.95 1056.43 425.99 1047.55 425.99 1047.55 420.78 1056.99 420.78 1056.99 417.68 1044.03 417.68 1044.03 437.4 1057.27 437.4 1057.27 434.3 1047.55 434.3 1047.55 428.95"/>
        <path class="cls-2" d="M1080.7,429.36c.48-.25.98-.61,1.49-1.06s.93-1.06,1.24-1.83c.31-.77.46-1.63.46-2.59,0-1.88-.6-3.38-1.8-4.51-1.2-1.13-2.76-1.69-4.68-1.69h-8.17s0,19.72,0,19.72h3.52s0-7.33,0-7.33h2.68s5.07,7.33,5.07,7.33h3.94s-5.21-7.47-5.21-7.47c.49-.13.97-.32,1.45-.58ZM1072.77,426.98v-6.2s4.37,0,4.37,0c.99,0,1.78.27,2.37.82.58.55.87,1.31.87,2.28s-.29,1.74-.87,2.28c-.58.54-1.36.82-2.34.82h-4.4Z"/>
        <path class="cls-2" d="M1109.08,428.52c-.77-.82-1.71-1.38-2.82-1.7-1.11-.32-2.22-.6-3.33-.83s-2.05-.58-2.82-1.03c-.77-.45-1.16-1.09-1.16-1.92,0-.75.3-1.36.9-1.83s1.48-.7,2.62-.7c2.09,0,3.35.75,3.8,2.25h3.52c-.28-1.67-1.04-2.98-2.28-3.93s-2.92-1.42-5.04-1.42c-2.14,0-3.85.5-5.13,1.51-1.28,1.01-1.92,2.38-1.92,4.13,0,1.2.28,2.21.83,3.03.55.82,1.24,1.39,2.06,1.72.82.33,1.71.62,2.68.89s1.86.47,2.68.62c.82.15,1.5.43,2.06.85.55.41.83.96.83,1.63,0,.88-.34,1.57-1.01,2.07-.68.5-1.7.75-3.07.75-1.11,0-2.03-.25-2.77-.75-.74-.5-1.23-1.19-1.45-2.07h-3.52c.28,1.88,1.11,3.33,2.48,4.37,1.37,1.03,3.13,1.55,5.27,1.55,2.38,0,4.27-.56,5.66-1.69,1.39-1.13,2.09-2.54,2.09-4.23,0-1.35-.39-2.44-1.16-3.25Z"/>
      </g>
    </g>
  </g>
  <g>
    <path class="cls-5" d="M1765.41,460.91l-147.73-118.79-36.32-29.31c-8.73-6.91-19.38-10.5-29.93-10.5s-21.15,3.59-29.88,10.5l-36.32,29.31-147.73,118.79c-3.95,3.22-6.29,8.05-6.29,13.15v226.2l84.44-67.92v-127.62l135.78-109.38,135.83,109.38v169.3l-69.58-56.07-59.6-47.91c-3.9-3.07-9.41-3.07-13.25,0l-211.39,169.97h130.01c1.71,0,3.38-.57,4.68-1.66l83.3-67.08,82.15,66.15h.05l1.14.94c1.3,1.09,2.96,1.66,4.68,1.66h120.14c6.65,0,12.11-5.4,12.11-12.11v-253.84c0-5.09-2.34-9.92-6.29-13.15Z"/>
    <polygon class="cls-3" points="1759.61 732.22 1633.55 737.39 1551.45 671.27 1617.69 617.94 1687.27 674.02 1737.97 714.79 1759.61 732.22"/>
  </g>
</svg>